%TF.GenerationSoftware,KiCad,Pcbnew,9.0.0*%
%TF.CreationDate,2025-05-01T17:01:26+02:00*%
%TF.ProjectId,USB-PD_BarrelJack,5553422d-5044-45f4-9261-7272656c4a61,rev?*%
%TF.SameCoordinates,Original*%
%TF.FileFunction,Copper,L2,Bot*%
%TF.FilePolarity,Positive*%
%FSLAX46Y46*%
G04 Gerber Fmt 4.6, Leading zero omitted, Abs format (unit mm)*
G04 Created by KiCad (PCBNEW 9.0.0) date 2025-05-01 17:01:26*
%MOMM*%
%LPD*%
G01*
G04 APERTURE LIST*
%TA.AperFunction,ComponentPad*%
%ADD10R,1.700000X1.700000*%
%TD*%
%TA.AperFunction,HeatsinkPad*%
%ADD11O,1.700000X1.000000*%
%TD*%
%TA.AperFunction,ViaPad*%
%ADD12C,0.600000*%
%TD*%
%TA.AperFunction,Conductor*%
%ADD13C,0.200000*%
%TD*%
%TA.AperFunction,Conductor*%
%ADD14C,0.500000*%
%TD*%
G04 APERTURE END LIST*
D10*
%TO.P,J3,1,Pin_1*%
%TO.N,GND*%
X165800000Y-94500000D03*
%TD*%
%TO.P,J2,1,Pin_1*%
%TO.N,VBUS*%
X165800000Y-103320000D03*
%TD*%
D11*
%TO.P,J1,S1,SHIELD*%
%TO.N,unconnected-(J1-SHIELD-PadS1)_2*%
X150820000Y-92480000D03*
%TO.N,unconnected-(J1-SHIELD-PadS1)_1*%
X147020000Y-92480000D03*
%TO.N,unconnected-(J1-SHIELD-PadS1)*%
X150820000Y-101120000D03*
%TO.N,unconnected-(J1-SHIELD-PadS1)_3*%
X147020000Y-101120000D03*
%TD*%
D12*
%TO.N,GND*%
X152700000Y-103500000D03*
%TO.N,Net-(J1-CC2)*%
X156700000Y-95700000D03*
X154300000Y-97600000D03*
%TO.N,VCC*%
X149800000Y-98400000D03*
X158580000Y-99360000D03*
%TO.N,GND*%
X158500000Y-103080000D03*
X164200000Y-100200000D03*
X163520000Y-103560000D03*
X146400000Y-94100000D03*
X165880000Y-99800000D03*
X149700000Y-94400000D03*
X163600000Y-94300000D03*
X148820000Y-103500000D03*
X147900000Y-91000000D03*
X149770000Y-99730000D03*
X148760000Y-105600000D03*
X159700000Y-101520000D03*
X163100000Y-99300000D03*
X146400000Y-96800000D03*
X161700000Y-91630000D03*
X153500000Y-91000000D03*
X165800000Y-96610000D03*
X146000000Y-103500000D03*
X163580000Y-95400000D03*
X161370000Y-103590000D03*
X146400000Y-99500000D03*
X150000000Y-91000000D03*
X157300000Y-103130000D03*
X163100000Y-100200000D03*
X152290000Y-93430000D03*
X152700000Y-105500000D03*
X154320000Y-94260000D03*
X163600000Y-93300000D03*
X157300000Y-101540000D03*
X159700000Y-103080000D03*
X149800000Y-93600000D03*
X164110000Y-90820000D03*
X158500000Y-101550000D03*
X154590000Y-100240000D03*
X146000000Y-105600000D03*
%TD*%
D13*
%TO.N,Net-(J1-CC2)*%
X155620000Y-97600000D02*
X156700000Y-96520000D01*
X156700000Y-96520000D02*
X156700000Y-95700000D01*
X154300000Y-97600000D02*
X155620000Y-97600000D01*
D14*
%TO.N,VCC*%
X158320000Y-99100000D02*
X150500000Y-99100000D01*
X158580000Y-99360000D02*
X158320000Y-99100000D01*
X150500000Y-99100000D02*
X149800000Y-98400000D01*
%TD*%
%TA.AperFunction,Conductor*%
%TO.N,GND*%
G36*
X166985148Y-90384852D02*
G01*
X166999500Y-90419500D01*
X166999500Y-107020500D01*
X166985148Y-107055148D01*
X166950500Y-107069500D01*
X144629500Y-107069500D01*
X144594852Y-107055148D01*
X144580500Y-107020500D01*
X144580500Y-102445322D01*
X164699500Y-102445322D01*
X164699500Y-104194677D01*
X164714033Y-104267739D01*
X164769398Y-104350601D01*
X164852260Y-104405966D01*
X164925326Y-104420500D01*
X166674674Y-104420500D01*
X166747740Y-104405966D01*
X166830601Y-104350601D01*
X166885966Y-104267740D01*
X166900500Y-104194674D01*
X166900500Y-102445326D01*
X166885966Y-102372260D01*
X166830601Y-102289398D01*
X166747739Y-102234033D01*
X166674677Y-102219500D01*
X166674674Y-102219500D01*
X164925326Y-102219500D01*
X164925322Y-102219500D01*
X164852260Y-102234033D01*
X164769398Y-102289398D01*
X164714033Y-102372260D01*
X164699500Y-102445322D01*
X144580500Y-102445322D01*
X144580500Y-101046078D01*
X145919500Y-101046078D01*
X145919500Y-101193921D01*
X145948340Y-101338906D01*
X145948342Y-101338915D01*
X146004914Y-101475491D01*
X146004916Y-101475495D01*
X146087049Y-101598416D01*
X146191584Y-101702951D01*
X146314505Y-101785084D01*
X146382796Y-101813371D01*
X146451084Y-101841657D01*
X146451085Y-101841657D01*
X146451087Y-101841658D01*
X146596082Y-101870500D01*
X147443918Y-101870500D01*
X147588913Y-101841658D01*
X147725495Y-101785084D01*
X147848416Y-101702951D01*
X147952951Y-101598416D01*
X148035084Y-101475495D01*
X148091658Y-101338913D01*
X148120500Y-101193918D01*
X148120500Y-101046082D01*
X148120499Y-101046078D01*
X149719500Y-101046078D01*
X149719500Y-101193921D01*
X149748340Y-101338906D01*
X149748342Y-101338915D01*
X149804914Y-101475491D01*
X149804916Y-101475495D01*
X149887049Y-101598416D01*
X149991584Y-101702951D01*
X150114505Y-101785084D01*
X150182796Y-101813371D01*
X150251084Y-101841657D01*
X150251085Y-101841657D01*
X150251087Y-101841658D01*
X150396082Y-101870500D01*
X151243918Y-101870500D01*
X151388913Y-101841658D01*
X151525495Y-101785084D01*
X151648416Y-101702951D01*
X151752951Y-101598416D01*
X151835084Y-101475495D01*
X151891658Y-101338913D01*
X151920500Y-101193918D01*
X151920500Y-101046082D01*
X151891658Y-100901087D01*
X151835084Y-100764505D01*
X151752951Y-100641584D01*
X151648416Y-100537049D01*
X151525495Y-100454916D01*
X151525492Y-100454914D01*
X151525491Y-100454914D01*
X151388915Y-100398342D01*
X151388906Y-100398340D01*
X151243921Y-100369500D01*
X151243918Y-100369500D01*
X150396082Y-100369500D01*
X150396078Y-100369500D01*
X150251093Y-100398340D01*
X150251084Y-100398342D01*
X150114508Y-100454914D01*
X149991584Y-100537048D01*
X149887048Y-100641584D01*
X149804914Y-100764508D01*
X149748342Y-100901084D01*
X149748340Y-100901093D01*
X149719500Y-101046078D01*
X148120499Y-101046078D01*
X148091658Y-100901087D01*
X148035084Y-100764505D01*
X147952951Y-100641584D01*
X147848416Y-100537049D01*
X147725495Y-100454916D01*
X147725492Y-100454914D01*
X147725491Y-100454914D01*
X147588915Y-100398342D01*
X147588906Y-100398340D01*
X147443921Y-100369500D01*
X147443918Y-100369500D01*
X146596082Y-100369500D01*
X146596078Y-100369500D01*
X146451093Y-100398340D01*
X146451084Y-100398342D01*
X146314508Y-100454914D01*
X146191584Y-100537048D01*
X146087048Y-100641584D01*
X146004914Y-100764508D01*
X145948342Y-100901084D01*
X145948340Y-100901093D01*
X145919500Y-101046078D01*
X144580500Y-101046078D01*
X144580500Y-98327522D01*
X149249500Y-98327522D01*
X149249500Y-98472477D01*
X149287015Y-98612483D01*
X149287016Y-98612487D01*
X149337254Y-98699500D01*
X149359491Y-98738015D01*
X149461985Y-98840509D01*
X149534456Y-98882350D01*
X149587511Y-98912982D01*
X149587515Y-98912984D01*
X149598953Y-98916048D01*
X149620916Y-98928730D01*
X150099500Y-99407314D01*
X150192686Y-99500500D01*
X150283941Y-99553186D01*
X150306814Y-99566392D01*
X150407204Y-99593291D01*
X150434103Y-99600499D01*
X150434104Y-99600500D01*
X150434107Y-99600500D01*
X150434108Y-99600500D01*
X158054901Y-99600500D01*
X158089549Y-99614852D01*
X158097336Y-99625000D01*
X158139491Y-99698015D01*
X158241985Y-99800509D01*
X158287930Y-99827035D01*
X158367512Y-99872983D01*
X158367514Y-99872983D01*
X158367515Y-99872984D01*
X158402517Y-99882363D01*
X158507522Y-99910500D01*
X158507525Y-99910500D01*
X158652477Y-99910500D01*
X158722480Y-99891742D01*
X158792485Y-99872984D01*
X158918015Y-99800509D01*
X159020509Y-99698015D01*
X159092984Y-99572485D01*
X159112273Y-99500499D01*
X159130500Y-99432477D01*
X159130500Y-99287522D01*
X159092984Y-99147516D01*
X159092983Y-99147512D01*
X159020508Y-99021984D01*
X158918015Y-98919491D01*
X158792487Y-98847016D01*
X158792483Y-98847015D01*
X158781048Y-98843951D01*
X158759083Y-98831269D01*
X158627314Y-98699500D01*
X158513188Y-98633608D01*
X158513184Y-98633607D01*
X158385895Y-98599500D01*
X158385892Y-98599500D01*
X150727610Y-98599500D01*
X150692962Y-98585148D01*
X150328730Y-98220916D01*
X150316048Y-98198953D01*
X150312984Y-98187515D01*
X150240509Y-98061985D01*
X150138015Y-97959491D01*
X150122442Y-97950500D01*
X150012487Y-97887016D01*
X150012483Y-97887015D01*
X149872478Y-97849500D01*
X149872475Y-97849500D01*
X149727525Y-97849500D01*
X149727522Y-97849500D01*
X149587516Y-97887015D01*
X149587512Y-97887016D01*
X149461984Y-97959491D01*
X149461984Y-97959492D01*
X149359492Y-98061984D01*
X149359491Y-98061984D01*
X149287016Y-98187512D01*
X149287015Y-98187516D01*
X149249500Y-98327522D01*
X144580500Y-98327522D01*
X144580500Y-97527522D01*
X153749500Y-97527522D01*
X153749500Y-97672477D01*
X153787015Y-97812483D01*
X153787016Y-97812487D01*
X153852908Y-97926613D01*
X153859491Y-97938015D01*
X153961985Y-98040509D01*
X154007930Y-98067035D01*
X154087512Y-98112983D01*
X154087514Y-98112983D01*
X154087515Y-98112984D01*
X154122517Y-98122363D01*
X154227522Y-98150500D01*
X154227525Y-98150500D01*
X154372477Y-98150500D01*
X154442480Y-98131742D01*
X154512485Y-98112984D01*
X154638015Y-98040509D01*
X154713672Y-97964852D01*
X154748320Y-97950500D01*
X155666147Y-97950500D01*
X155666147Y-97950499D01*
X155755288Y-97926614D01*
X155765912Y-97920480D01*
X155835212Y-97880470D01*
X156980470Y-96735212D01*
X157026614Y-96655288D01*
X157050499Y-96566146D01*
X157050500Y-96566146D01*
X157050500Y-96148320D01*
X157064852Y-96113672D01*
X157140508Y-96038016D01*
X157140509Y-96038015D01*
X157212984Y-95912485D01*
X157231742Y-95842480D01*
X157250500Y-95772477D01*
X157250500Y-95627522D01*
X157212984Y-95487516D01*
X157212983Y-95487512D01*
X157140508Y-95361984D01*
X157038015Y-95259491D01*
X156912487Y-95187016D01*
X156912483Y-95187015D01*
X156772478Y-95149500D01*
X156772475Y-95149500D01*
X156627525Y-95149500D01*
X156627522Y-95149500D01*
X156487516Y-95187015D01*
X156487512Y-95187016D01*
X156361984Y-95259491D01*
X156361984Y-95259492D01*
X156259492Y-95361984D01*
X156259491Y-95361984D01*
X156187016Y-95487512D01*
X156187015Y-95487516D01*
X156149500Y-95627522D01*
X156149500Y-95772477D01*
X156187015Y-95912483D01*
X156187016Y-95912487D01*
X156259491Y-96038015D01*
X156335148Y-96113672D01*
X156349500Y-96148320D01*
X156349500Y-96354522D01*
X156335148Y-96389170D01*
X155489170Y-97235148D01*
X155454522Y-97249500D01*
X154748320Y-97249500D01*
X154713672Y-97235148D01*
X154638015Y-97159491D01*
X154512487Y-97087016D01*
X154512483Y-97087015D01*
X154372478Y-97049500D01*
X154372475Y-97049500D01*
X154227525Y-97049500D01*
X154227522Y-97049500D01*
X154087516Y-97087015D01*
X154087512Y-97087016D01*
X153961984Y-97159491D01*
X153961984Y-97159492D01*
X153859492Y-97261984D01*
X153859491Y-97261984D01*
X153787016Y-97387512D01*
X153787015Y-97387516D01*
X153749500Y-97527522D01*
X144580500Y-97527522D01*
X144580500Y-92406078D01*
X145919500Y-92406078D01*
X145919500Y-92553921D01*
X145948340Y-92698906D01*
X145948342Y-92698915D01*
X146004914Y-92835491D01*
X146004916Y-92835495D01*
X146087049Y-92958416D01*
X146191584Y-93062951D01*
X146314505Y-93145084D01*
X146382796Y-93173371D01*
X146451084Y-93201657D01*
X146451085Y-93201657D01*
X146451087Y-93201658D01*
X146596082Y-93230500D01*
X147443918Y-93230500D01*
X147588913Y-93201658D01*
X147725495Y-93145084D01*
X147848416Y-93062951D01*
X147952951Y-92958416D01*
X148035084Y-92835495D01*
X148091658Y-92698913D01*
X148120500Y-92553918D01*
X148120500Y-92406082D01*
X148120499Y-92406078D01*
X149719500Y-92406078D01*
X149719500Y-92553921D01*
X149748340Y-92698906D01*
X149748342Y-92698915D01*
X149804914Y-92835491D01*
X149804916Y-92835495D01*
X149887049Y-92958416D01*
X149991584Y-93062951D01*
X150114505Y-93145084D01*
X150182796Y-93173371D01*
X150251084Y-93201657D01*
X150251085Y-93201657D01*
X150251087Y-93201658D01*
X150396082Y-93230500D01*
X151243918Y-93230500D01*
X151388913Y-93201658D01*
X151525495Y-93145084D01*
X151648416Y-93062951D01*
X151752951Y-92958416D01*
X151835084Y-92835495D01*
X151891658Y-92698913D01*
X151920500Y-92553918D01*
X151920500Y-92406082D01*
X151891658Y-92261087D01*
X151835084Y-92124505D01*
X151752951Y-92001584D01*
X151648416Y-91897049D01*
X151525495Y-91814916D01*
X151525492Y-91814914D01*
X151525491Y-91814914D01*
X151388915Y-91758342D01*
X151388906Y-91758340D01*
X151243921Y-91729500D01*
X151243918Y-91729500D01*
X150396082Y-91729500D01*
X150396078Y-91729500D01*
X150251093Y-91758340D01*
X150251084Y-91758342D01*
X150114508Y-91814914D01*
X149991584Y-91897048D01*
X149887048Y-92001584D01*
X149804914Y-92124508D01*
X149748342Y-92261084D01*
X149748340Y-92261093D01*
X149719500Y-92406078D01*
X148120499Y-92406078D01*
X148091658Y-92261087D01*
X148035084Y-92124505D01*
X147952951Y-92001584D01*
X147848416Y-91897049D01*
X147725495Y-91814916D01*
X147725492Y-91814914D01*
X147725491Y-91814914D01*
X147588915Y-91758342D01*
X147588906Y-91758340D01*
X147443921Y-91729500D01*
X147443918Y-91729500D01*
X146596082Y-91729500D01*
X146596078Y-91729500D01*
X146451093Y-91758340D01*
X146451084Y-91758342D01*
X146314508Y-91814914D01*
X146191584Y-91897048D01*
X146087048Y-92001584D01*
X146004914Y-92124508D01*
X145948342Y-92261084D01*
X145948340Y-92261093D01*
X145919500Y-92406078D01*
X144580500Y-92406078D01*
X144580500Y-90419500D01*
X144594852Y-90384852D01*
X144629500Y-90370500D01*
X166950500Y-90370500D01*
X166985148Y-90384852D01*
G37*
%TD.AperFunction*%
%TD*%
M02*
