%TF.GenerationSoftware,KiCad,Pcbnew,9.0.0*%
%TF.CreationDate,2025-05-01T17:01:26+02:00*%
%TF.ProjectId,USB-PD_BarrelJack,5553422d-5044-45f4-9261-7272656c4a61,rev?*%
%TF.SameCoordinates,Original*%
%TF.FileFunction,Legend,Bot*%
%TF.FilePolarity,Positive*%
%FSLAX46Y46*%
G04 Gerber Fmt 4.6, Leading zero omitted, Abs format (unit mm)*
G04 Created by KiCad (PCBNEW 9.0.0) date 2025-05-01 17:01:26*
%MOMM*%
%LPD*%
G01*
G04 APERTURE LIST*
%ADD10C,0.100000*%
G04 APERTURE END LIST*
D10*
X166803734Y-90688940D02*
X166803734Y-91336559D01*
X166803734Y-91336559D02*
X166765639Y-91412749D01*
X166765639Y-91412749D02*
X166727544Y-91450845D01*
X166727544Y-91450845D02*
X166651353Y-91488940D01*
X166651353Y-91488940D02*
X166498972Y-91488940D01*
X166498972Y-91488940D02*
X166422782Y-91450845D01*
X166422782Y-91450845D02*
X166384687Y-91412749D01*
X166384687Y-91412749D02*
X166346591Y-91336559D01*
X166346591Y-91336559D02*
X166346591Y-90688940D01*
X166003735Y-91450845D02*
X165889449Y-91488940D01*
X165889449Y-91488940D02*
X165698973Y-91488940D01*
X165698973Y-91488940D02*
X165622782Y-91450845D01*
X165622782Y-91450845D02*
X165584687Y-91412749D01*
X165584687Y-91412749D02*
X165546592Y-91336559D01*
X165546592Y-91336559D02*
X165546592Y-91260368D01*
X165546592Y-91260368D02*
X165584687Y-91184178D01*
X165584687Y-91184178D02*
X165622782Y-91146083D01*
X165622782Y-91146083D02*
X165698973Y-91107987D01*
X165698973Y-91107987D02*
X165851354Y-91069892D01*
X165851354Y-91069892D02*
X165927544Y-91031797D01*
X165927544Y-91031797D02*
X165965639Y-90993702D01*
X165965639Y-90993702D02*
X166003735Y-90917511D01*
X166003735Y-90917511D02*
X166003735Y-90841321D01*
X166003735Y-90841321D02*
X165965639Y-90765130D01*
X165965639Y-90765130D02*
X165927544Y-90727035D01*
X165927544Y-90727035D02*
X165851354Y-90688940D01*
X165851354Y-90688940D02*
X165660877Y-90688940D01*
X165660877Y-90688940D02*
X165546592Y-90727035D01*
X164937068Y-91069892D02*
X164822782Y-91107987D01*
X164822782Y-91107987D02*
X164784687Y-91146083D01*
X164784687Y-91146083D02*
X164746591Y-91222273D01*
X164746591Y-91222273D02*
X164746591Y-91336559D01*
X164746591Y-91336559D02*
X164784687Y-91412749D01*
X164784687Y-91412749D02*
X164822782Y-91450845D01*
X164822782Y-91450845D02*
X164898972Y-91488940D01*
X164898972Y-91488940D02*
X165203734Y-91488940D01*
X165203734Y-91488940D02*
X165203734Y-90688940D01*
X165203734Y-90688940D02*
X164937068Y-90688940D01*
X164937068Y-90688940D02*
X164860877Y-90727035D01*
X164860877Y-90727035D02*
X164822782Y-90765130D01*
X164822782Y-90765130D02*
X164784687Y-90841321D01*
X164784687Y-90841321D02*
X164784687Y-90917511D01*
X164784687Y-90917511D02*
X164822782Y-90993702D01*
X164822782Y-90993702D02*
X164860877Y-91031797D01*
X164860877Y-91031797D02*
X164937068Y-91069892D01*
X164937068Y-91069892D02*
X165203734Y-91069892D01*
X164403734Y-91184178D02*
X163794211Y-91184178D01*
X163413258Y-91488940D02*
X163413258Y-90688940D01*
X163413258Y-90688940D02*
X163108496Y-90688940D01*
X163108496Y-90688940D02*
X163032306Y-90727035D01*
X163032306Y-90727035D02*
X162994211Y-90765130D01*
X162994211Y-90765130D02*
X162956115Y-90841321D01*
X162956115Y-90841321D02*
X162956115Y-90955606D01*
X162956115Y-90955606D02*
X162994211Y-91031797D01*
X162994211Y-91031797D02*
X163032306Y-91069892D01*
X163032306Y-91069892D02*
X163108496Y-91107987D01*
X163108496Y-91107987D02*
X163413258Y-91107987D01*
X162613258Y-91488940D02*
X162613258Y-90688940D01*
X162613258Y-90688940D02*
X162422782Y-90688940D01*
X162422782Y-90688940D02*
X162308496Y-90727035D01*
X162308496Y-90727035D02*
X162232306Y-90803225D01*
X162232306Y-90803225D02*
X162194211Y-90879416D01*
X162194211Y-90879416D02*
X162156115Y-91031797D01*
X162156115Y-91031797D02*
X162156115Y-91146083D01*
X162156115Y-91146083D02*
X162194211Y-91298464D01*
X162194211Y-91298464D02*
X162232306Y-91374654D01*
X162232306Y-91374654D02*
X162308496Y-91450845D01*
X162308496Y-91450845D02*
X162422782Y-91488940D01*
X162422782Y-91488940D02*
X162613258Y-91488940D01*
X160784687Y-91488940D02*
X161241830Y-91488940D01*
X161013258Y-91488940D02*
X161013258Y-90688940D01*
X161013258Y-90688940D02*
X161089449Y-90803225D01*
X161089449Y-90803225D02*
X161165639Y-90879416D01*
X161165639Y-90879416D02*
X161241830Y-90917511D01*
X160479925Y-90765130D02*
X160441829Y-90727035D01*
X160441829Y-90727035D02*
X160365639Y-90688940D01*
X160365639Y-90688940D02*
X160175163Y-90688940D01*
X160175163Y-90688940D02*
X160098972Y-90727035D01*
X160098972Y-90727035D02*
X160060877Y-90765130D01*
X160060877Y-90765130D02*
X160022782Y-90841321D01*
X160022782Y-90841321D02*
X160022782Y-90917511D01*
X160022782Y-90917511D02*
X160060877Y-91031797D01*
X160060877Y-91031797D02*
X160518020Y-91488940D01*
X160518020Y-91488940D02*
X160022782Y-91488940D01*
X159794210Y-90688940D02*
X159527543Y-91488940D01*
X159527543Y-91488940D02*
X159260877Y-90688940D01*
X158270401Y-91488940D02*
X158346591Y-91450845D01*
X158346591Y-91450845D02*
X158384686Y-91412749D01*
X158384686Y-91412749D02*
X158422782Y-91336559D01*
X158422782Y-91336559D02*
X158422782Y-91107987D01*
X158422782Y-91107987D02*
X158384686Y-91031797D01*
X158384686Y-91031797D02*
X158346591Y-90993702D01*
X158346591Y-90993702D02*
X158270401Y-90955606D01*
X158270401Y-90955606D02*
X158156115Y-90955606D01*
X158156115Y-90955606D02*
X158079924Y-90993702D01*
X158079924Y-90993702D02*
X158041829Y-91031797D01*
X158041829Y-91031797D02*
X158003734Y-91107987D01*
X158003734Y-91107987D02*
X158003734Y-91336559D01*
X158003734Y-91336559D02*
X158041829Y-91412749D01*
X158041829Y-91412749D02*
X158079924Y-91450845D01*
X158079924Y-91450845D02*
X158156115Y-91488940D01*
X158156115Y-91488940D02*
X158270401Y-91488940D01*
X157318019Y-90955606D02*
X157318019Y-91488940D01*
X157660876Y-90955606D02*
X157660876Y-91374654D01*
X157660876Y-91374654D02*
X157622781Y-91450845D01*
X157622781Y-91450845D02*
X157546591Y-91488940D01*
X157546591Y-91488940D02*
X157432305Y-91488940D01*
X157432305Y-91488940D02*
X157356114Y-91450845D01*
X157356114Y-91450845D02*
X157318019Y-91412749D01*
X157051352Y-90955606D02*
X156746590Y-90955606D01*
X156937066Y-90688940D02*
X156937066Y-91374654D01*
X156937066Y-91374654D02*
X156898971Y-91450845D01*
X156898971Y-91450845D02*
X156822781Y-91488940D01*
X156822781Y-91488940D02*
X156746590Y-91488940D01*
X156479923Y-90955606D02*
X156479923Y-91755606D01*
X156479923Y-90993702D02*
X156403733Y-90955606D01*
X156403733Y-90955606D02*
X156251352Y-90955606D01*
X156251352Y-90955606D02*
X156175161Y-90993702D01*
X156175161Y-90993702D02*
X156137066Y-91031797D01*
X156137066Y-91031797D02*
X156098971Y-91107987D01*
X156098971Y-91107987D02*
X156098971Y-91336559D01*
X156098971Y-91336559D02*
X156137066Y-91412749D01*
X156137066Y-91412749D02*
X156175161Y-91450845D01*
X156175161Y-91450845D02*
X156251352Y-91488940D01*
X156251352Y-91488940D02*
X156403733Y-91488940D01*
X156403733Y-91488940D02*
X156479923Y-91450845D01*
X155413256Y-90955606D02*
X155413256Y-91488940D01*
X155756113Y-90955606D02*
X155756113Y-91374654D01*
X155756113Y-91374654D02*
X155718018Y-91450845D01*
X155718018Y-91450845D02*
X155641828Y-91488940D01*
X155641828Y-91488940D02*
X155527542Y-91488940D01*
X155527542Y-91488940D02*
X155451351Y-91450845D01*
X155451351Y-91450845D02*
X155413256Y-91412749D01*
X155146589Y-90955606D02*
X154841827Y-90955606D01*
X155032303Y-90688940D02*
X155032303Y-91374654D01*
X155032303Y-91374654D02*
X154994208Y-91450845D01*
X154994208Y-91450845D02*
X154918018Y-91488940D01*
X154918018Y-91488940D02*
X154841827Y-91488940D01*
X166537068Y-92357847D02*
X166422782Y-92395942D01*
X166422782Y-92395942D02*
X166384687Y-92434038D01*
X166384687Y-92434038D02*
X166346591Y-92510228D01*
X166346591Y-92510228D02*
X166346591Y-92624514D01*
X166346591Y-92624514D02*
X166384687Y-92700704D01*
X166384687Y-92700704D02*
X166422782Y-92738800D01*
X166422782Y-92738800D02*
X166498972Y-92776895D01*
X166498972Y-92776895D02*
X166803734Y-92776895D01*
X166803734Y-92776895D02*
X166803734Y-91976895D01*
X166803734Y-91976895D02*
X166537068Y-91976895D01*
X166537068Y-91976895D02*
X166460877Y-92014990D01*
X166460877Y-92014990D02*
X166422782Y-92053085D01*
X166422782Y-92053085D02*
X166384687Y-92129276D01*
X166384687Y-92129276D02*
X166384687Y-92205466D01*
X166384687Y-92205466D02*
X166422782Y-92281657D01*
X166422782Y-92281657D02*
X166460877Y-92319752D01*
X166460877Y-92319752D02*
X166537068Y-92357847D01*
X166537068Y-92357847D02*
X166803734Y-92357847D01*
X165660877Y-92776895D02*
X165660877Y-92357847D01*
X165660877Y-92357847D02*
X165698972Y-92281657D01*
X165698972Y-92281657D02*
X165775163Y-92243561D01*
X165775163Y-92243561D02*
X165927544Y-92243561D01*
X165927544Y-92243561D02*
X166003734Y-92281657D01*
X165660877Y-92738800D02*
X165737068Y-92776895D01*
X165737068Y-92776895D02*
X165927544Y-92776895D01*
X165927544Y-92776895D02*
X166003734Y-92738800D01*
X166003734Y-92738800D02*
X166041830Y-92662609D01*
X166041830Y-92662609D02*
X166041830Y-92586419D01*
X166041830Y-92586419D02*
X166003734Y-92510228D01*
X166003734Y-92510228D02*
X165927544Y-92472133D01*
X165927544Y-92472133D02*
X165737068Y-92472133D01*
X165737068Y-92472133D02*
X165660877Y-92434038D01*
X165279924Y-92776895D02*
X165279924Y-92243561D01*
X165279924Y-92395942D02*
X165241829Y-92319752D01*
X165241829Y-92319752D02*
X165203734Y-92281657D01*
X165203734Y-92281657D02*
X165127543Y-92243561D01*
X165127543Y-92243561D02*
X165051353Y-92243561D01*
X164784686Y-92776895D02*
X164784686Y-92243561D01*
X164784686Y-92395942D02*
X164746591Y-92319752D01*
X164746591Y-92319752D02*
X164708496Y-92281657D01*
X164708496Y-92281657D02*
X164632305Y-92243561D01*
X164632305Y-92243561D02*
X164556115Y-92243561D01*
X163984686Y-92738800D02*
X164060877Y-92776895D01*
X164060877Y-92776895D02*
X164213258Y-92776895D01*
X164213258Y-92776895D02*
X164289448Y-92738800D01*
X164289448Y-92738800D02*
X164327544Y-92662609D01*
X164327544Y-92662609D02*
X164327544Y-92357847D01*
X164327544Y-92357847D02*
X164289448Y-92281657D01*
X164289448Y-92281657D02*
X164213258Y-92243561D01*
X164213258Y-92243561D02*
X164060877Y-92243561D01*
X164060877Y-92243561D02*
X163984686Y-92281657D01*
X163984686Y-92281657D02*
X163946591Y-92357847D01*
X163946591Y-92357847D02*
X163946591Y-92434038D01*
X163946591Y-92434038D02*
X164327544Y-92510228D01*
X163489449Y-92776895D02*
X163565639Y-92738800D01*
X163565639Y-92738800D02*
X163603734Y-92662609D01*
X163603734Y-92662609D02*
X163603734Y-91976895D01*
X162346591Y-91976895D02*
X162346591Y-92548323D01*
X162346591Y-92548323D02*
X162384686Y-92662609D01*
X162384686Y-92662609D02*
X162460877Y-92738800D01*
X162460877Y-92738800D02*
X162575162Y-92776895D01*
X162575162Y-92776895D02*
X162651353Y-92776895D01*
X161622781Y-92776895D02*
X161622781Y-92357847D01*
X161622781Y-92357847D02*
X161660876Y-92281657D01*
X161660876Y-92281657D02*
X161737067Y-92243561D01*
X161737067Y-92243561D02*
X161889448Y-92243561D01*
X161889448Y-92243561D02*
X161965638Y-92281657D01*
X161622781Y-92738800D02*
X161698972Y-92776895D01*
X161698972Y-92776895D02*
X161889448Y-92776895D01*
X161889448Y-92776895D02*
X161965638Y-92738800D01*
X161965638Y-92738800D02*
X162003734Y-92662609D01*
X162003734Y-92662609D02*
X162003734Y-92586419D01*
X162003734Y-92586419D02*
X161965638Y-92510228D01*
X161965638Y-92510228D02*
X161889448Y-92472133D01*
X161889448Y-92472133D02*
X161698972Y-92472133D01*
X161698972Y-92472133D02*
X161622781Y-92434038D01*
X160898971Y-92738800D02*
X160975162Y-92776895D01*
X160975162Y-92776895D02*
X161127543Y-92776895D01*
X161127543Y-92776895D02*
X161203733Y-92738800D01*
X161203733Y-92738800D02*
X161241828Y-92700704D01*
X161241828Y-92700704D02*
X161279924Y-92624514D01*
X161279924Y-92624514D02*
X161279924Y-92395942D01*
X161279924Y-92395942D02*
X161241828Y-92319752D01*
X161241828Y-92319752D02*
X161203733Y-92281657D01*
X161203733Y-92281657D02*
X161127543Y-92243561D01*
X161127543Y-92243561D02*
X160975162Y-92243561D01*
X160975162Y-92243561D02*
X160898971Y-92281657D01*
X160556114Y-92776895D02*
X160556114Y-91976895D01*
X160479924Y-92472133D02*
X160251352Y-92776895D01*
X160251352Y-92243561D02*
X160556114Y-92548323D01*
X158841828Y-92776895D02*
X159108495Y-92395942D01*
X159298971Y-92776895D02*
X159298971Y-91976895D01*
X159298971Y-91976895D02*
X158994209Y-91976895D01*
X158994209Y-91976895D02*
X158918019Y-92014990D01*
X158918019Y-92014990D02*
X158879924Y-92053085D01*
X158879924Y-92053085D02*
X158841828Y-92129276D01*
X158841828Y-92129276D02*
X158841828Y-92243561D01*
X158841828Y-92243561D02*
X158879924Y-92319752D01*
X158879924Y-92319752D02*
X158918019Y-92357847D01*
X158918019Y-92357847D02*
X158994209Y-92395942D01*
X158994209Y-92395942D02*
X159298971Y-92395942D01*
X158194209Y-92738800D02*
X158270400Y-92776895D01*
X158270400Y-92776895D02*
X158422781Y-92776895D01*
X158422781Y-92776895D02*
X158498971Y-92738800D01*
X158498971Y-92738800D02*
X158537067Y-92662609D01*
X158537067Y-92662609D02*
X158537067Y-92357847D01*
X158537067Y-92357847D02*
X158498971Y-92281657D01*
X158498971Y-92281657D02*
X158422781Y-92243561D01*
X158422781Y-92243561D02*
X158270400Y-92243561D01*
X158270400Y-92243561D02*
X158194209Y-92281657D01*
X158194209Y-92281657D02*
X158156114Y-92357847D01*
X158156114Y-92357847D02*
X158156114Y-92434038D01*
X158156114Y-92434038D02*
X158537067Y-92510228D01*
X157813257Y-92243561D02*
X157813257Y-93043561D01*
X157813257Y-92281657D02*
X157737067Y-92243561D01*
X157737067Y-92243561D02*
X157584686Y-92243561D01*
X157584686Y-92243561D02*
X157508495Y-92281657D01*
X157508495Y-92281657D02*
X157470400Y-92319752D01*
X157470400Y-92319752D02*
X157432305Y-92395942D01*
X157432305Y-92395942D02*
X157432305Y-92624514D01*
X157432305Y-92624514D02*
X157470400Y-92700704D01*
X157470400Y-92700704D02*
X157508495Y-92738800D01*
X157508495Y-92738800D02*
X157584686Y-92776895D01*
X157584686Y-92776895D02*
X157737067Y-92776895D01*
X157737067Y-92776895D02*
X157813257Y-92738800D01*
X156975162Y-92776895D02*
X157051352Y-92738800D01*
X157051352Y-92738800D02*
X157089447Y-92662609D01*
X157089447Y-92662609D02*
X157089447Y-91976895D01*
X156327542Y-92776895D02*
X156327542Y-92357847D01*
X156327542Y-92357847D02*
X156365637Y-92281657D01*
X156365637Y-92281657D02*
X156441828Y-92243561D01*
X156441828Y-92243561D02*
X156594209Y-92243561D01*
X156594209Y-92243561D02*
X156670399Y-92281657D01*
X156327542Y-92738800D02*
X156403733Y-92776895D01*
X156403733Y-92776895D02*
X156594209Y-92776895D01*
X156594209Y-92776895D02*
X156670399Y-92738800D01*
X156670399Y-92738800D02*
X156708495Y-92662609D01*
X156708495Y-92662609D02*
X156708495Y-92586419D01*
X156708495Y-92586419D02*
X156670399Y-92510228D01*
X156670399Y-92510228D02*
X156594209Y-92472133D01*
X156594209Y-92472133D02*
X156403733Y-92472133D01*
X156403733Y-92472133D02*
X156327542Y-92434038D01*
X155603732Y-92738800D02*
X155679923Y-92776895D01*
X155679923Y-92776895D02*
X155832304Y-92776895D01*
X155832304Y-92776895D02*
X155908494Y-92738800D01*
X155908494Y-92738800D02*
X155946589Y-92700704D01*
X155946589Y-92700704D02*
X155984685Y-92624514D01*
X155984685Y-92624514D02*
X155984685Y-92395942D01*
X155984685Y-92395942D02*
X155946589Y-92319752D01*
X155946589Y-92319752D02*
X155908494Y-92281657D01*
X155908494Y-92281657D02*
X155832304Y-92243561D01*
X155832304Y-92243561D02*
X155679923Y-92243561D01*
X155679923Y-92243561D02*
X155603732Y-92281657D01*
X154956113Y-92738800D02*
X155032304Y-92776895D01*
X155032304Y-92776895D02*
X155184685Y-92776895D01*
X155184685Y-92776895D02*
X155260875Y-92738800D01*
X155260875Y-92738800D02*
X155298971Y-92662609D01*
X155298971Y-92662609D02*
X155298971Y-92357847D01*
X155298971Y-92357847D02*
X155260875Y-92281657D01*
X155260875Y-92281657D02*
X155184685Y-92243561D01*
X155184685Y-92243561D02*
X155032304Y-92243561D01*
X155032304Y-92243561D02*
X154956113Y-92281657D01*
X154956113Y-92281657D02*
X154918018Y-92357847D01*
X154918018Y-92357847D02*
X154918018Y-92434038D01*
X154918018Y-92434038D02*
X155298971Y-92510228D01*
X154575161Y-92776895D02*
X154575161Y-92243561D01*
X154575161Y-92319752D02*
X154537066Y-92281657D01*
X154537066Y-92281657D02*
X154460876Y-92243561D01*
X154460876Y-92243561D02*
X154346590Y-92243561D01*
X154346590Y-92243561D02*
X154270399Y-92281657D01*
X154270399Y-92281657D02*
X154232304Y-92357847D01*
X154232304Y-92357847D02*
X154232304Y-92776895D01*
X154232304Y-92357847D02*
X154194209Y-92281657D01*
X154194209Y-92281657D02*
X154118018Y-92243561D01*
X154118018Y-92243561D02*
X154003733Y-92243561D01*
X154003733Y-92243561D02*
X153927542Y-92281657D01*
X153927542Y-92281657D02*
X153889447Y-92357847D01*
X153889447Y-92357847D02*
X153889447Y-92776895D01*
X153203732Y-92738800D02*
X153279923Y-92776895D01*
X153279923Y-92776895D02*
X153432304Y-92776895D01*
X153432304Y-92776895D02*
X153508494Y-92738800D01*
X153508494Y-92738800D02*
X153546590Y-92662609D01*
X153546590Y-92662609D02*
X153546590Y-92357847D01*
X153546590Y-92357847D02*
X153508494Y-92281657D01*
X153508494Y-92281657D02*
X153432304Y-92243561D01*
X153432304Y-92243561D02*
X153279923Y-92243561D01*
X153279923Y-92243561D02*
X153203732Y-92281657D01*
X153203732Y-92281657D02*
X153165637Y-92357847D01*
X153165637Y-92357847D02*
X153165637Y-92434038D01*
X153165637Y-92434038D02*
X153546590Y-92510228D01*
X152822780Y-92243561D02*
X152822780Y-92776895D01*
X152822780Y-92319752D02*
X152784685Y-92281657D01*
X152784685Y-92281657D02*
X152708495Y-92243561D01*
X152708495Y-92243561D02*
X152594209Y-92243561D01*
X152594209Y-92243561D02*
X152518018Y-92281657D01*
X152518018Y-92281657D02*
X152479923Y-92357847D01*
X152479923Y-92357847D02*
X152479923Y-92776895D01*
X152213256Y-92243561D02*
X151908494Y-92243561D01*
X152098970Y-91976895D02*
X152098970Y-92662609D01*
X152098970Y-92662609D02*
X152060875Y-92738800D01*
X152060875Y-92738800D02*
X151984685Y-92776895D01*
X151984685Y-92776895D02*
X151908494Y-92776895D01*
X166743734Y-106496895D02*
X166743734Y-105696895D01*
X166743734Y-105696895D02*
X166553258Y-105696895D01*
X166553258Y-105696895D02*
X166438972Y-105734990D01*
X166438972Y-105734990D02*
X166362782Y-105811180D01*
X166362782Y-105811180D02*
X166324687Y-105887371D01*
X166324687Y-105887371D02*
X166286591Y-106039752D01*
X166286591Y-106039752D02*
X166286591Y-106154038D01*
X166286591Y-106154038D02*
X166324687Y-106306419D01*
X166324687Y-106306419D02*
X166362782Y-106382609D01*
X166362782Y-106382609D02*
X166438972Y-106458800D01*
X166438972Y-106458800D02*
X166553258Y-106496895D01*
X166553258Y-106496895D02*
X166743734Y-106496895D01*
X165638972Y-106458800D02*
X165715163Y-106496895D01*
X165715163Y-106496895D02*
X165867544Y-106496895D01*
X165867544Y-106496895D02*
X165943734Y-106458800D01*
X165943734Y-106458800D02*
X165981830Y-106382609D01*
X165981830Y-106382609D02*
X165981830Y-106077847D01*
X165981830Y-106077847D02*
X165943734Y-106001657D01*
X165943734Y-106001657D02*
X165867544Y-105963561D01*
X165867544Y-105963561D02*
X165715163Y-105963561D01*
X165715163Y-105963561D02*
X165638972Y-106001657D01*
X165638972Y-106001657D02*
X165600877Y-106077847D01*
X165600877Y-106077847D02*
X165600877Y-106154038D01*
X165600877Y-106154038D02*
X165981830Y-106230228D01*
X165296116Y-106458800D02*
X165219925Y-106496895D01*
X165219925Y-106496895D02*
X165067544Y-106496895D01*
X165067544Y-106496895D02*
X164991354Y-106458800D01*
X164991354Y-106458800D02*
X164953258Y-106382609D01*
X164953258Y-106382609D02*
X164953258Y-106344514D01*
X164953258Y-106344514D02*
X164991354Y-106268323D01*
X164991354Y-106268323D02*
X165067544Y-106230228D01*
X165067544Y-106230228D02*
X165181830Y-106230228D01*
X165181830Y-106230228D02*
X165258020Y-106192133D01*
X165258020Y-106192133D02*
X165296116Y-106115942D01*
X165296116Y-106115942D02*
X165296116Y-106077847D01*
X165296116Y-106077847D02*
X165258020Y-106001657D01*
X165258020Y-106001657D02*
X165181830Y-105963561D01*
X165181830Y-105963561D02*
X165067544Y-105963561D01*
X165067544Y-105963561D02*
X164991354Y-106001657D01*
X164610401Y-106496895D02*
X164610401Y-105963561D01*
X164610401Y-105696895D02*
X164648497Y-105734990D01*
X164648497Y-105734990D02*
X164610401Y-105773085D01*
X164610401Y-105773085D02*
X164572306Y-105734990D01*
X164572306Y-105734990D02*
X164610401Y-105696895D01*
X164610401Y-105696895D02*
X164610401Y-105773085D01*
X163886592Y-105963561D02*
X163886592Y-106611180D01*
X163886592Y-106611180D02*
X163924687Y-106687371D01*
X163924687Y-106687371D02*
X163962783Y-106725466D01*
X163962783Y-106725466D02*
X164038973Y-106763561D01*
X164038973Y-106763561D02*
X164153259Y-106763561D01*
X164153259Y-106763561D02*
X164229449Y-106725466D01*
X163886592Y-106458800D02*
X163962783Y-106496895D01*
X163962783Y-106496895D02*
X164115164Y-106496895D01*
X164115164Y-106496895D02*
X164191354Y-106458800D01*
X164191354Y-106458800D02*
X164229449Y-106420704D01*
X164229449Y-106420704D02*
X164267545Y-106344514D01*
X164267545Y-106344514D02*
X164267545Y-106115942D01*
X164267545Y-106115942D02*
X164229449Y-106039752D01*
X164229449Y-106039752D02*
X164191354Y-106001657D01*
X164191354Y-106001657D02*
X164115164Y-105963561D01*
X164115164Y-105963561D02*
X163962783Y-105963561D01*
X163962783Y-105963561D02*
X163886592Y-106001657D01*
X163505639Y-105963561D02*
X163505639Y-106496895D01*
X163505639Y-106039752D02*
X163467544Y-106001657D01*
X163467544Y-106001657D02*
X163391354Y-105963561D01*
X163391354Y-105963561D02*
X163277068Y-105963561D01*
X163277068Y-105963561D02*
X163200877Y-106001657D01*
X163200877Y-106001657D02*
X163162782Y-106077847D01*
X163162782Y-106077847D02*
X163162782Y-106496895D01*
X162477067Y-106458800D02*
X162553258Y-106496895D01*
X162553258Y-106496895D02*
X162705639Y-106496895D01*
X162705639Y-106496895D02*
X162781829Y-106458800D01*
X162781829Y-106458800D02*
X162819925Y-106382609D01*
X162819925Y-106382609D02*
X162819925Y-106077847D01*
X162819925Y-106077847D02*
X162781829Y-106001657D01*
X162781829Y-106001657D02*
X162705639Y-105963561D01*
X162705639Y-105963561D02*
X162553258Y-105963561D01*
X162553258Y-105963561D02*
X162477067Y-106001657D01*
X162477067Y-106001657D02*
X162438972Y-106077847D01*
X162438972Y-106077847D02*
X162438972Y-106154038D01*
X162438972Y-106154038D02*
X162819925Y-106230228D01*
X161753258Y-106496895D02*
X161753258Y-105696895D01*
X161753258Y-106458800D02*
X161829449Y-106496895D01*
X161829449Y-106496895D02*
X161981830Y-106496895D01*
X161981830Y-106496895D02*
X162058020Y-106458800D01*
X162058020Y-106458800D02*
X162096115Y-106420704D01*
X162096115Y-106420704D02*
X162134211Y-106344514D01*
X162134211Y-106344514D02*
X162134211Y-106115942D01*
X162134211Y-106115942D02*
X162096115Y-106039752D01*
X162096115Y-106039752D02*
X162058020Y-106001657D01*
X162058020Y-106001657D02*
X161981830Y-105963561D01*
X161981830Y-105963561D02*
X161829449Y-105963561D01*
X161829449Y-105963561D02*
X161753258Y-106001657D01*
X160762781Y-106496895D02*
X160762781Y-105696895D01*
X160762781Y-106001657D02*
X160686591Y-105963561D01*
X160686591Y-105963561D02*
X160534210Y-105963561D01*
X160534210Y-105963561D02*
X160458019Y-106001657D01*
X160458019Y-106001657D02*
X160419924Y-106039752D01*
X160419924Y-106039752D02*
X160381829Y-106115942D01*
X160381829Y-106115942D02*
X160381829Y-106344514D01*
X160381829Y-106344514D02*
X160419924Y-106420704D01*
X160419924Y-106420704D02*
X160458019Y-106458800D01*
X160458019Y-106458800D02*
X160534210Y-106496895D01*
X160534210Y-106496895D02*
X160686591Y-106496895D01*
X160686591Y-106496895D02*
X160762781Y-106458800D01*
X160115162Y-105963561D02*
X159924686Y-106496895D01*
X159734209Y-105963561D02*
X159924686Y-106496895D01*
X159924686Y-106496895D02*
X160000876Y-106687371D01*
X160000876Y-106687371D02*
X160038971Y-106725466D01*
X160038971Y-106725466D02*
X160115162Y-106763561D01*
X158591352Y-105696895D02*
X158591352Y-106268323D01*
X158591352Y-106268323D02*
X158629447Y-106382609D01*
X158629447Y-106382609D02*
X158705638Y-106458800D01*
X158705638Y-106458800D02*
X158819923Y-106496895D01*
X158819923Y-106496895D02*
X158896114Y-106496895D01*
X157867542Y-106496895D02*
X157867542Y-106077847D01*
X157867542Y-106077847D02*
X157905637Y-106001657D01*
X157905637Y-106001657D02*
X157981828Y-105963561D01*
X157981828Y-105963561D02*
X158134209Y-105963561D01*
X158134209Y-105963561D02*
X158210399Y-106001657D01*
X157867542Y-106458800D02*
X157943733Y-106496895D01*
X157943733Y-106496895D02*
X158134209Y-106496895D01*
X158134209Y-106496895D02*
X158210399Y-106458800D01*
X158210399Y-106458800D02*
X158248495Y-106382609D01*
X158248495Y-106382609D02*
X158248495Y-106306419D01*
X158248495Y-106306419D02*
X158210399Y-106230228D01*
X158210399Y-106230228D02*
X158134209Y-106192133D01*
X158134209Y-106192133D02*
X157943733Y-106192133D01*
X157943733Y-106192133D02*
X157867542Y-106154038D01*
X157486589Y-106496895D02*
X157486589Y-105963561D01*
X157486589Y-106039752D02*
X157448494Y-106001657D01*
X157448494Y-106001657D02*
X157372304Y-105963561D01*
X157372304Y-105963561D02*
X157258018Y-105963561D01*
X157258018Y-105963561D02*
X157181827Y-106001657D01*
X157181827Y-106001657D02*
X157143732Y-106077847D01*
X157143732Y-106077847D02*
X157143732Y-106496895D01*
X157143732Y-106077847D02*
X157105637Y-106001657D01*
X157105637Y-106001657D02*
X157029446Y-105963561D01*
X157029446Y-105963561D02*
X156915161Y-105963561D01*
X156915161Y-105963561D02*
X156838970Y-106001657D01*
X156838970Y-106001657D02*
X156800875Y-106077847D01*
X156800875Y-106077847D02*
X156800875Y-106496895D01*
X156419922Y-106496895D02*
X156419922Y-105963561D01*
X156419922Y-105696895D02*
X156458018Y-105734990D01*
X156458018Y-105734990D02*
X156419922Y-105773085D01*
X156419922Y-105773085D02*
X156381827Y-105734990D01*
X156381827Y-105734990D02*
X156419922Y-105696895D01*
X156419922Y-105696895D02*
X156419922Y-105773085D01*
X155734208Y-106458800D02*
X155810399Y-106496895D01*
X155810399Y-106496895D02*
X155962780Y-106496895D01*
X155962780Y-106496895D02*
X156038970Y-106458800D01*
X156038970Y-106458800D02*
X156077066Y-106382609D01*
X156077066Y-106382609D02*
X156077066Y-106077847D01*
X156077066Y-106077847D02*
X156038970Y-106001657D01*
X156038970Y-106001657D02*
X155962780Y-105963561D01*
X155962780Y-105963561D02*
X155810399Y-105963561D01*
X155810399Y-105963561D02*
X155734208Y-106001657D01*
X155734208Y-106001657D02*
X155696113Y-106077847D01*
X155696113Y-106077847D02*
X155696113Y-106154038D01*
X155696113Y-106154038D02*
X156077066Y-106230228D01*
X154286589Y-106420704D02*
X154324685Y-106458800D01*
X154324685Y-106458800D02*
X154438970Y-106496895D01*
X154438970Y-106496895D02*
X154515161Y-106496895D01*
X154515161Y-106496895D02*
X154629447Y-106458800D01*
X154629447Y-106458800D02*
X154705637Y-106382609D01*
X154705637Y-106382609D02*
X154743732Y-106306419D01*
X154743732Y-106306419D02*
X154781828Y-106154038D01*
X154781828Y-106154038D02*
X154781828Y-106039752D01*
X154781828Y-106039752D02*
X154743732Y-105887371D01*
X154743732Y-105887371D02*
X154705637Y-105811180D01*
X154705637Y-105811180D02*
X154629447Y-105734990D01*
X154629447Y-105734990D02*
X154515161Y-105696895D01*
X154515161Y-105696895D02*
X154438970Y-105696895D01*
X154438970Y-105696895D02*
X154324685Y-105734990D01*
X154324685Y-105734990D02*
X154286589Y-105773085D01*
X153600875Y-106496895D02*
X153600875Y-106077847D01*
X153600875Y-106077847D02*
X153638970Y-106001657D01*
X153638970Y-106001657D02*
X153715161Y-105963561D01*
X153715161Y-105963561D02*
X153867542Y-105963561D01*
X153867542Y-105963561D02*
X153943732Y-106001657D01*
X153600875Y-106458800D02*
X153677066Y-106496895D01*
X153677066Y-106496895D02*
X153867542Y-106496895D01*
X153867542Y-106496895D02*
X153943732Y-106458800D01*
X153943732Y-106458800D02*
X153981828Y-106382609D01*
X153981828Y-106382609D02*
X153981828Y-106306419D01*
X153981828Y-106306419D02*
X153943732Y-106230228D01*
X153943732Y-106230228D02*
X153867542Y-106192133D01*
X153867542Y-106192133D02*
X153677066Y-106192133D01*
X153677066Y-106192133D02*
X153600875Y-106154038D01*
X153105637Y-106496895D02*
X153181827Y-106458800D01*
X153181827Y-106458800D02*
X153219922Y-106382609D01*
X153219922Y-106382609D02*
X153219922Y-105696895D01*
X152800874Y-106496895D02*
X152800874Y-105963561D01*
X152800874Y-106039752D02*
X152762779Y-106001657D01*
X152762779Y-106001657D02*
X152686589Y-105963561D01*
X152686589Y-105963561D02*
X152572303Y-105963561D01*
X152572303Y-105963561D02*
X152496112Y-106001657D01*
X152496112Y-106001657D02*
X152458017Y-106077847D01*
X152458017Y-106077847D02*
X152458017Y-106496895D01*
X152458017Y-106077847D02*
X152419922Y-106001657D01*
X152419922Y-106001657D02*
X152343731Y-105963561D01*
X152343731Y-105963561D02*
X152229446Y-105963561D01*
X152229446Y-105963561D02*
X152153255Y-106001657D01*
X152153255Y-106001657D02*
X152115160Y-106077847D01*
X152115160Y-106077847D02*
X152115160Y-106496895D01*
X151429445Y-106458800D02*
X151505636Y-106496895D01*
X151505636Y-106496895D02*
X151658017Y-106496895D01*
X151658017Y-106496895D02*
X151734207Y-106458800D01*
X151734207Y-106458800D02*
X151772303Y-106382609D01*
X151772303Y-106382609D02*
X151772303Y-106077847D01*
X151772303Y-106077847D02*
X151734207Y-106001657D01*
X151734207Y-106001657D02*
X151658017Y-105963561D01*
X151658017Y-105963561D02*
X151505636Y-105963561D01*
X151505636Y-105963561D02*
X151429445Y-106001657D01*
X151429445Y-106001657D02*
X151391350Y-106077847D01*
X151391350Y-106077847D02*
X151391350Y-106154038D01*
X151391350Y-106154038D02*
X151772303Y-106230228D01*
X151124684Y-105963561D02*
X150934208Y-106496895D01*
X150743731Y-105963561D02*
X150934208Y-106496895D01*
X150934208Y-106496895D02*
X151010398Y-106687371D01*
X151010398Y-106687371D02*
X151048493Y-106725466D01*
X151048493Y-106725466D02*
X151124684Y-106763561D01*
X150438969Y-105963561D02*
X150438969Y-106496895D01*
X150438969Y-106039752D02*
X150400874Y-106001657D01*
X150400874Y-106001657D02*
X150324684Y-105963561D01*
X150324684Y-105963561D02*
X150210398Y-105963561D01*
X150210398Y-105963561D02*
X150134207Y-106001657D01*
X150134207Y-106001657D02*
X150096112Y-106077847D01*
X150096112Y-106077847D02*
X150096112Y-106496895D01*
M02*
