M48
; DRILL file {KiCad 9.0.0} date 2025-05-01T17:01:21+0200
; FORMAT={-:-/ absolute / metric / decimal}
; #@! TF.CreationDate,2025-05-01T17:01:21+02:00
; #@! TF.GenerationSoftware,Kicad,Pcbnew,9.0.0
; #@! TF.FileFunction,Plated,1,2,PTH
FMAT,2
METRIC
; #@! TA.AperFunction,Plated,PTH,ViaDrill
T1C0.300
; #@! TA.AperFunction,Plated,PTH,ComponentDrill
T2C0.500
; #@! TA.AperFunction,Plated,PTH,ComponentDrill
T3C1.000
%
G90
G05
T1
X146.0Y-103.5
X146.0Y-105.6
X146.4Y-94.1
X146.4Y-96.8
X146.4Y-99.5
X147.9Y-91.0
X148.76Y-105.6
X148.82Y-103.5
X149.7Y-94.4
X149.77Y-99.73
X149.8Y-93.6
X149.8Y-98.4
X150.0Y-91.0
X152.29Y-93.43
X152.7Y-103.5
X152.7Y-105.5
X153.5Y-91.0
X154.3Y-97.6
X154.32Y-94.26
X154.59Y-100.24
X156.7Y-95.7
X157.3Y-101.54
X157.3Y-103.13
X158.5Y-101.55
X158.5Y-103.08
X158.58Y-99.36
X159.7Y-101.52
X159.7Y-103.08
X161.37Y-103.59
X161.7Y-91.63
X163.1Y-99.3
X163.1Y-100.2
X163.52Y-103.56
X163.58Y-95.4
X163.6Y-93.3
X163.6Y-94.3
X164.11Y-90.82
X164.2Y-100.2
X165.8Y-96.61
X165.88Y-99.8
T3
X165.8Y-94.5
X165.8Y-103.32
T2
G00X147.37Y-92.48
M15
G01X146.67Y-92.48
M16
G05
G00X147.37Y-101.12
M15
G01X146.67Y-101.12
M16
G05
G00X151.17Y-92.48
M15
G01X150.47Y-92.48
M16
G05
G00X151.17Y-101.12
M15
G01X150.47Y-101.12
M16
G05
M30
