%TF.GenerationSoftware,KiCad,Pcbnew,9.0.0*%
%TF.CreationDate,2025-05-01T17:01:26+02:00*%
%TF.ProjectId,USB-PD_BarrelJack,5553422d-5044-45f4-9261-7272656c4a61,rev?*%
%TF.SameCoordinates,Original*%
%TF.FileFunction,Soldermask,Top*%
%TF.FilePolarity,Negative*%
%FSLAX46Y46*%
G04 Gerber Fmt 4.6, Leading zero omitted, Abs format (unit mm)*
G04 Created by KiCad (PCBNEW 9.0.0) date 2025-05-01 17:01:26*
%MOMM*%
%LPD*%
G01*
G04 APERTURE LIST*
G04 Aperture macros list*
%AMRoundRect*
0 Rectangle with rounded corners*
0 $1 Rounding radius*
0 $2 $3 $4 $5 $6 $7 $8 $9 X,Y pos of 4 corners*
0 Add a 4 corners polygon primitive as box body*
4,1,4,$2,$3,$4,$5,$6,$7,$8,$9,$2,$3,0*
0 Add four circle primitives for the rounded corners*
1,1,$1+$1,$2,$3*
1,1,$1+$1,$4,$5*
1,1,$1+$1,$6,$7*
1,1,$1+$1,$8,$9*
0 Add four rect primitives between the rounded corners*
20,1,$1+$1,$2,$3,$4,$5,0*
20,1,$1+$1,$4,$5,$6,$7,0*
20,1,$1+$1,$6,$7,$8,$9,0*
20,1,$1+$1,$8,$9,$2,$3,0*%
G04 Aperture macros list end*
%ADD10R,1.700000X1.700000*%
%ADD11RoundRect,0.237500X0.237500X-0.250000X0.237500X0.250000X-0.237500X0.250000X-0.237500X-0.250000X0*%
%ADD12RoundRect,0.237500X-0.237500X0.250000X-0.237500X-0.250000X0.237500X-0.250000X0.237500X0.250000X0*%
%ADD13RoundRect,0.061500X0.143500X-0.438500X0.143500X0.438500X-0.143500X0.438500X-0.143500X-0.438500X0*%
%ADD14RoundRect,0.237500X-0.250000X-0.237500X0.250000X-0.237500X0.250000X0.237500X-0.250000X0.237500X0*%
%ADD15RoundRect,0.237500X0.237500X-0.300000X0.237500X0.300000X-0.237500X0.300000X-0.237500X-0.300000X0*%
%ADD16RoundRect,0.175000X-0.625000X0.175000X-0.625000X-0.175000X0.625000X-0.175000X0.625000X0.175000X0*%
%ADD17RoundRect,0.200000X-0.600000X0.200000X-0.600000X-0.200000X0.600000X-0.200000X0.600000X0.200000X0*%
%ADD18RoundRect,0.225000X-0.575000X0.225000X-0.575000X-0.225000X0.575000X-0.225000X0.575000X0.225000X0*%
%ADD19O,1.700000X1.000000*%
%ADD20RoundRect,0.100000X0.637500X0.100000X-0.637500X0.100000X-0.637500X-0.100000X0.637500X-0.100000X0*%
%ADD21RoundRect,0.237500X-0.237500X0.300000X-0.237500X-0.300000X0.237500X-0.300000X0.237500X0.300000X0*%
G04 APERTURE END LIST*
D10*
%TO.C,J3*%
X165800000Y-94500000D03*
%TD*%
D11*
%TO.C,R1*%
X153300000Y-96312500D03*
X153300000Y-94487500D03*
%TD*%
D12*
%TO.C,R2*%
X153400000Y-97887500D03*
X153400000Y-99712500D03*
%TD*%
D13*
%TO.C,Q2*%
X156810000Y-105050000D03*
X158080000Y-105050000D03*
X159350000Y-105050000D03*
X160620000Y-105050000D03*
X160620000Y-99950000D03*
X159350000Y-99950000D03*
X158080000Y-99950000D03*
X156810000Y-99950000D03*
%TD*%
D14*
%TO.C,R3*%
X157597500Y-92290000D03*
X159422500Y-92290000D03*
%TD*%
D10*
%TO.C,J2*%
X165800000Y-103320000D03*
%TD*%
D15*
%TO.C,C2*%
X162430000Y-105402500D03*
X162430000Y-103677500D03*
%TD*%
D16*
%TO.C,J1*%
X151000000Y-96300000D03*
D17*
X151000000Y-98320000D03*
D18*
X151000000Y-99550000D03*
D16*
X151000000Y-97300000D03*
D17*
X151000000Y-95280000D03*
D18*
X151000000Y-94050000D03*
D19*
X150820000Y-92480000D03*
X147020000Y-92480000D03*
X150820000Y-101120000D03*
X147020000Y-101120000D03*
%TD*%
D20*
%TO.C,U1*%
X161345000Y-98355000D03*
X161345000Y-97705000D03*
X161345000Y-97055000D03*
X161345000Y-96405000D03*
X161345000Y-95755000D03*
X161345000Y-95105000D03*
X161345000Y-94455000D03*
X161345000Y-93805000D03*
X155620000Y-93805000D03*
X155620000Y-94455000D03*
X155620000Y-95105000D03*
X155620000Y-95755000D03*
X155620000Y-96405000D03*
X155620000Y-97055000D03*
X155620000Y-97705000D03*
X155620000Y-98355000D03*
%TD*%
D21*
%TO.C,C1*%
X164200000Y-97457500D03*
X164200000Y-99182500D03*
%TD*%
M02*
